<svg xmlns="http://www.w3.org/2000/svg" xmlns:xlink="http://www.w3.org/1999/xlink" width="1920" zoomAndPan="magnify" viewBox="0 0 1440 809.999993" height="1080" preserveAspectRatio="xMidYMid meet" version="1.0"><defs><clipPath id="b9c80f0b03"><path d="M 563.625 398.886719 L 576 398.886719 L 576 410.886719 L 563.625 410.886719 Z M 563.625 398.886719 " clip-rule="nonzero"/></clipPath><clipPath id="b30040f981"><path d="M 569.8125 398.886719 C 566.394531 398.886719 563.625 401.65625 563.625 405.074219 C 563.625 408.492188 566.394531 411.261719 569.8125 411.261719 C 573.230469 411.261719 576 408.492188 576 405.074219 C 576 401.65625 573.230469 398.886719 569.8125 398.886719 Z M 569.8125 398.886719 " clip-rule="nonzero"/></clipPath><clipPath id="a994543377"><path d="M 864 398.886719 L 876.375 398.886719 L 876.375 410.886719 L 864 410.886719 Z M 864 398.886719 " clip-rule="nonzero"/></clipPath><clipPath id="7630b2f790"><path d="M 870.1875 398.886719 C 866.769531 398.886719 864 401.65625 864 405.074219 C 864 408.492188 866.769531 411.261719 870.1875 411.261719 C 873.605469 411.261719 876.375 408.492188 876.375 405.074219 C 876.375 401.65625 873.605469 398.886719 870.1875 398.886719 Z M 870.1875 398.886719 " clip-rule="nonzero"/></clipPath></defs><path stroke-linecap="butt" transform="matrix(0.75, 0, 0, 0.75, 575.999977, 404.700024)" fill="none" stroke-linejoin="miter" d="M 0.0000303407 0.498927 L 384.00005 0.498927 " stroke="#d9d9d9" stroke-width="1" stroke-opacity="1" stroke-miterlimit="4"/><g clip-path="url(#b9c80f0b03)"><g clip-path="url(#b30040f981)"><path stroke-linecap="butt" transform="matrix(0.75, 0, 0, 0.75, 563.624978, 398.887471)" fill="none" stroke-linejoin="miter" d="M 8.25003 -0.00100318 C 3.692738 -0.00100318 0.0000295106 3.691705 0.0000295106 8.248997 C 0.0000295106 12.806289 3.692738 16.498998 8.25003 16.498998 C 12.807322 16.498998 16.50003 12.806289 16.50003 8.248997 C 16.50003 3.691705 12.807322 -0.00100318 8.25003 -0.00100318 Z M 8.25003 -0.00100318 " stroke="#d9d9d9" stroke-width="8" stroke-opacity="1" stroke-miterlimit="4"/></g></g><g clip-path="url(#a994543377)"><g clip-path="url(#7630b2f790)"><path stroke-linecap="butt" transform="matrix(0.75, 0, 0, 0.75, 863.999963, 398.887471)" fill="none" stroke-linejoin="miter" d="M 8.25005 -0.00100318 C 3.692758 -0.00100318 0.0000496593 3.691705 0.0000496593 8.248997 C 0.0000496593 12.806289 3.692758 16.498998 8.25005 16.498998 C 12.807342 16.498998 16.50005 12.806289 16.50005 8.248997 C 16.50005 3.691705 12.807342 -0.00100318 8.25005 -0.00100318 Z M 8.25005 -0.00100318 " stroke="#d9d9d9" stroke-width="8" stroke-opacity="1" stroke-miterlimit="4"/></g></g></svg>